# xmcd
#
# Track frame offsets:
#	150
#	15450
#	28536
#	44316
#	55780
#	69262
#	79782
#	94277
#	108917
#	121723
#	132995
#	148610
#	162342
#	176597
#
# Disc length: 2531 seconds
#
# Revision: 1
# Processed by: cddbd v1.5.2PL0 Copyright (c) Steve Scherf et al.
# Submitted via: audiograbber 1.83.01
#
DISCID=af09e10e
DTITLE=Zlatno Slavejce - Zlatno Slavejce
DYEAR=2014
DGENRE=Detski
TTITLE0=Horot Zlatno Slavejce - Viva Sokcinja
TTITLE1=Marija Jancevska - Sminkite na mama
TTITLE2=Elena Sopova - Brojki
TTITLE3=Andreja Basotova - Internet
TTITLE4=Jana Stojanovska - Soobrakaj
TTITLE5=Viktorija Eftimova - Dzangl ritam
TTITLE6=Bisera Stanoevska i Jana Simonovska - Mojot son
TTITLE7=Mila Trajceva - Ptica vo gradi
TTITLE8=Eva Ristovska - Roken rol
TTITLE9=Marija Pavlovska - Drugarstvo
TTITLE10=Manja Mitevska i Vladimir Stefanovik - Kako bozemski
TTITLE11=Simeon Markoski - Prva ljubov
TTITLE12=Sara Gligorova - Kazi mi
TTITLE13=Daniel Kajmakovski i horot Zlatno Slavejce - Sekoj
EXTD=
EXTT0=
EXTT1=
EXTT2=
EXTT3=
EXTT4=
EXTT5=
EXTT6=
EXTT7=
EXTT8=
EXTT9=
EXTT10=
EXTT11=
EXTT12=
EXTT13=
PLAYORDER=
